<?xml version="1.0" encoding="UTF-8" standalone="no" ?>
<!DOCTYPE svg PUBLIC "-//W3C//DTD SVG 1.1//EN" "http://www.w3.org/Graphics/SVG/1.1/DTD/svg11.dtd">
<svg xmlns="http://www.w3.org/2000/svg" xmlns:xlink="http://www.w3.org/1999/xlink" version="1.1" width="1080" height="1080" viewBox="0 0 1080 1080" xml:space="preserve">
<desc>Created with Fabric.js 5.2.4</desc>
<defs>
</defs>
<g transform="matrix(1 0 0 1 540 540)" id="a69f06ad-5017-444b-91e6-d0c13096b5d3"  >
<rect style="stroke: none; stroke-width: 1; stroke-dasharray: none; stroke-linecap: butt; stroke-dashoffset: 0; stroke-linejoin: miter; stroke-miterlimit: 4; fill: rgb(255,255,255); fill-rule: nonzero; opacity: 1; visibility: hidden;" vector-effect="non-scaling-stroke"  x="-540" y="-540" rx="0" ry="0" width="1080" height="1080" />
</g>
<g transform="matrix(1 0 0 1 540 540)" id="b738835d-f5f2-404d-894d-ada73e716a58"  >
</g>
<g transform="matrix(0.43 0 0 0.43 205.46 540)" id="d8691e13-1d68-44cc-8890-b6e33e66f61d"  >
<path style="stroke: rgb(0,0,0); stroke-width: 0; stroke-dasharray: none; stroke-linecap: butt; stroke-dashoffset: 0; stroke-linejoin: miter; stroke-miterlimit: 4; fill: rgb(0,0,0); fill-rule: nonzero; opacity: 1;" vector-effect="non-scaling-stroke"  transform=" translate(-444.5, -575.5)" d="M 286.788 975 Q 257 975 236 953.788 Q 215 932.575 215 902.788 Q 215 873 236.212 852 Q 257.425 831 287.212 831 Q 317 831 338 852.212 Q 359 873.425 359 903.212 Q 359 933 337.788 954 Q 316.575 975 286.788 975 Z M 686.788 975 Q 657 975 636 953.788 Q 615 932.575 615 902.788 Q 615 873 636.212 852 Q 657.425 831 687.212 831 Q 717 831 738 852.212 Q 759 873.425 759 903.212 Q 759 933 737.788 954 Q 716.575 975 686.788 975 Z M 235 315 L 345 543 L 633 543 L 758 315 L 235 315 Z M 205 255 L 794.074 255 Q 817.038 255 829.019 276 Q 841 297 829 318 L 694 561 Q 683 580 665.441 591.5 Q 647.881 603 627 603 L 324 603 L 268 707 L 759 707 L 759 767 L 277 767 Q 235 767 216.5 739 Q 198 711 217 676 L 281 558 L 129 236 L 51 236 L 51 176 L 168 176 L 205 255 Z M 345 543 L 633 543 L 345 543 Z" stroke-linecap="round" />
</g>
<g transform="matrix(1.63 0 0 1.63 713.34 540)" style="" id="f7c8580b-e8fe-464f-8634-2e050031aa7f"  >
		<text xml:space="preserve" font-family="Raleway" font-size="105" font-style="normal" font-weight="900" style="stroke: none; stroke-width: 1; stroke-dasharray: none; stroke-linecap: butt; stroke-dashoffset: 0; stroke-linejoin: miter; stroke-miterlimit: 4; fill: rgb(0,0,0); fill-rule: nonzero; opacity: 1; white-space: pre;" ><tspan x="-204.91" y="32.98" >MyShop</tspan></text>
</g>
</svg>